<?xml version="1.0" standalone="no"?>
<!DOCTYPE svg PUBLIC "-//W3C//DTD SVG 20010904//EN"
 "http://www.w3.org/TR/2001/REC-SVG-20010904/DTD/svg10.dtd">
<svg version="1.0" xmlns="http://www.w3.org/2000/svg"
 width="244.000000pt" height="249.000000pt" viewBox="0 0 244.000000 249.000000"
 preserveAspectRatio="xMidYMid meet">

<g transform="translate(0.000000,249.000000) scale(0.100000,-0.100000)"
fill="#000000" stroke="none">
<path d="M1180 2477 c-3 -3 -48 -7 -101 -10 -53 -3 -105 -10 -115 -15 -11 -6
-50 -17 -88 -26 -68 -16 -87 -23 -159 -64 -21 -12 -46 -22 -55 -22 -25 0 -186
-109 -250 -169 -97 -91 -136 -85 573 -91 541 -5 626 -8 666 -22 68 -24 105
-44 184 -101 120 -86 208 -194 257 -318 21 -52 22 -71 28 -614 3 -308 7 -561
8 -562 1 -2 10 -3 20 -3 18 1 82 80 82 103 0 7 11 24 25 37 13 12 22 27 19 32
-3 4 8 27 25 50 17 23 31 46 31 51 0 6 8 28 19 51 33 74 44 110 48 163 3 29
11 57 19 64 21 18 21 441 -1 459 -9 8 -15 30 -15 60 0 30 -6 52 -15 60 -8 7
-15 24 -15 39 0 14 -7 39 -15 55 -8 15 -15 34 -15 41 0 12 -9 33 -63 140 -59
119 -313 385 -386 405 -21 5 -56 26 -79 46 -45 38 -217 114 -258 114 -14 0
-40 7 -59 15 -19 7 -54 16 -78 19 -87 10 -232 18 -237 13z"/>
<path d="M273 2023 c-48 -48 -173 -265 -173 -301 0 -5 -7 -15 -15 -22 -8 -7
-15 -23 -15 -35 0 -13 -7 -36 -15 -51 -8 -16 -15 -47 -15 -69 -1 -22 -7 -51
-15 -65 -21 -37 -21 -426 0 -477 8 -19 15 -50 15 -67 0 -17 7 -44 15 -60 8
-15 17 -40 20 -53 2 -14 11 -33 20 -43 8 -9 15 -26 15 -37 0 -11 7 -26 15 -33
8 -7 15 -20 15 -29 0 -9 8 -28 17 -41 10 -14 27 -41 38 -61 57 -102 104 -143
119 -103 3 9 6 356 6 773 0 816 0 821 -47 774z"/>
<path d="M977 1683 c-4 -3 -7 -287 -7 -629 0 -617 0 -623 -21 -637 -20 -14
-50 -15 -566 -17 -40 0 -25 -26 50 -92 75 -65 95 -80 137 -100 14 -6 34 -20
46 -30 48 -42 219 -110 364 -145 109 -26 429 -26 457 -1 11 10 35 18 54 18 19
0 47 7 63 15 15 8 38 15 51 15 12 0 28 7 35 15 7 8 23 15 36 15 24 0 100 35
110 51 3 5 14 9 24 9 39 0 289 205 272 222 -6 6 -136 10 -300 11 -160 1 -294
6 -299 10 -4 5 -10 266 -13 581 l-5 573 -27 36 c-16 20 -51 47 -82 61 -52 25
-64 26 -214 26 -87 0 -162 -3 -165 -7z"/>
</g>
</svg>
